<svg width="48" height="47" viewBox="0 0 48 47" fill="none" xmlns="http://www.w3.org/2000/svg">
<path d="M6.96998 45.3327L39.5665 13.5765L39.5665 34.9516C39.5665 35.9676 39.9807 36.9419 40.7181 37.6603C41.4555 38.3787 42.4557 38.7823 43.4985 38.7823C44.5413 38.7823 45.5415 38.3787 46.2788 37.6603C47.0162 36.9419 47.4305 35.9676 47.4305 34.9516L47.4305 4.49789C47.4305 3.48194 47.0162 2.5076 46.2788 1.78921C45.5415 1.07082 44.5413 0.667236 43.4985 0.667236L12.0423 0.667236C10.9995 0.667236 9.99934 1.07082 9.26194 1.78921C8.52454 2.5076 8.11028 3.48194 8.11028 4.49789V4.30636C8.11028 5.32231 8.52454 6.29666 9.26194 7.01504C9.99934 7.73343 10.9995 8.13702 12.0423 8.13702L33.865 8.13702L1.38652 39.7782C1.01797 40.1344 0.725449 40.558 0.525826 41.0248C0.326199 41.4916 0.223427 41.9923 0.223427 42.498C0.223427 43.0037 0.326199 43.5044 0.525826 43.9712C0.725449 44.438 1.01797 44.8617 1.38652 45.2178C1.7442 45.5844 2.17288 45.8785 2.64782 46.0829C3.12276 46.2873 3.63457 46.398 4.15368 46.4087C4.67278 46.4194 5.18892 46.3298 5.67229 46.1451C6.15568 45.9604 6.59672 45.6843 6.96998 45.3327Z" fill="black"/>
</svg>
