<svg width="5" height="5" viewBox="0 0 5 5" fill="none" xmlns="http://www.w3.org/2000/svg">
<path d="M2.38639 0.208496C2.83541 0.20847 3.27455 0.340354 3.64925 0.587767C4.02396 0.835179 4.31773 1.18722 4.49407 1.60016C4.67041 2.0131 4.72156 2.46875 4.64115 2.91051C4.56075 3.35228 4.35234 3.76068 4.04181 4.08501C3.73129 4.40934 3.33232 4.6353 2.89447 4.73483C2.45662 4.83435 1.99918 4.80306 1.57896 4.64483C1.15875 4.4866 0.794274 4.2084 0.530811 3.8448C0.267349 3.4812 0.116506 3.04822 0.0970183 2.59962L0.0947266 2.50016L0.0970183 2.4007C0.122648 1.81072 0.375046 1.25339 0.801579 0.844965C1.22811 0.436536 1.79585 0.20853 2.38639 0.208496Z" fill="black"/>
</svg>
